<svg width="1546" height="284" viewBox="0 0 1546 284" fill="none" xmlns="http://www.w3.org/2000/svg">
<path d="M989.468 84.9858H1037.22L1002.03 242.957C993.417 272.039 983.723 278.86 957.155 278.86C930.946 278.86 921.253 272.039 912.277 242.957L900.07 200.233L887.863 242.957C878.887 272.039 869.194 278.86 842.985 278.86C816.776 278.86 806.723 272.039 798.106 242.957L762.922 84.9858H810.672L840.472 229.314C841.19 230.751 841.908 231.469 842.985 231.828C844.421 231.469 845.139 230.391 845.857 228.596L876.374 122.684C879.605 110.836 890.017 104.732 900.07 104.732C910.482 104.732 920.894 110.836 924.125 122.684L954.642 228.955C955.36 230.391 956.078 231.469 957.155 231.828C958.591 231.469 959.309 230.751 959.668 229.314L989.468 84.9858Z" fill="#050021"/>
<path d="M1087.75 60.376C1073.03 60.376 1060.82 48.1691 1060.82 33.449C1060.82 18.3699 1073.03 6.52204 1087.75 6.52204C1102.47 6.52204 1114.67 18.3699 1114.67 33.449C1114.67 48.1691 1102.47 60.376 1087.75 60.376ZM1110.72 272.757H1064.77V84.2678H1110.72V272.757Z" fill="#050021"/>
<path d="M1200.14 272.757H1153.82V6H1200.14V272.757ZM1262.97 183.718L1349.13 272.757H1284.15L1209.11 190.54V156.073C1254.71 154.278 1270.87 122.325 1270.87 84.2678H1318.98C1318.98 130.582 1298.15 168.28 1262.97 183.718Z" fill="#050021"/>
<path d="M1398.42 189.462C1403.81 218.185 1428.22 232.905 1453 232.905C1472.02 232.905 1491.05 224.288 1502.54 207.055L1539.16 233.623C1523.72 261.986 1489.98 277.065 1454.79 277.065C1403.45 277.065 1350.31 245.112 1350.31 176.897C1350.31 112.272 1399.5 79.6004 1447.61 79.6004C1493.92 79.6004 1539.16 109.4 1539.16 169.716V189.462H1398.42ZM1490.33 158.945C1490.33 136.327 1469.51 123.043 1447.25 123.043C1427.15 123.043 1406.32 134.172 1399.5 158.945H1490.33Z" fill="#050021"/>
<path d="M989.468 84.9858H1037.22L1002.03 242.957C993.417 272.039 983.723 278.86 957.155 278.86C930.946 278.86 921.253 272.039 912.277 242.957L900.07 200.233L887.863 242.957C878.887 272.039 869.194 278.86 842.985 278.86C816.776 278.86 806.723 272.039 798.106 242.957L762.922 84.9858H810.672L840.472 229.314C841.19 230.751 841.908 231.469 842.985 231.828C844.421 231.469 845.139 230.391 845.857 228.596L876.374 122.684C879.605 110.836 890.017 104.732 900.07 104.732C910.482 104.732 920.894 110.836 924.125 122.684L954.642 228.955C955.36 230.391 956.078 231.469 957.155 231.828C958.591 231.469 959.309 230.751 959.668 229.314L989.468 84.9858Z" stroke="#050021" stroke-width="10.2487"/>
<path d="M1087.75 60.376C1073.03 60.376 1060.82 48.1691 1060.82 33.449C1060.82 18.3699 1073.03 6.52204 1087.75 6.52204C1102.47 6.52204 1114.67 18.3699 1114.67 33.449C1114.67 48.1691 1102.47 60.376 1087.75 60.376ZM1110.72 272.757H1064.77V84.2678H1110.72V272.757Z" stroke="#050021" stroke-width="10.2487"/>
<path d="M1200.14 272.757H1153.82V6H1200.14V272.757ZM1262.97 183.718L1349.13 272.757H1284.15L1209.11 190.54V156.073C1254.71 154.278 1270.87 122.325 1270.87 84.2678H1318.98C1318.98 130.582 1298.15 168.28 1262.97 183.718Z" stroke="#050021" stroke-width="10.2487"/>
<path d="M1398.42 189.462C1403.81 218.185 1428.22 232.905 1453 232.905C1472.02 232.905 1491.05 224.288 1502.54 207.055L1539.16 233.623C1523.72 261.986 1489.98 277.065 1454.79 277.065C1403.45 277.065 1350.31 245.112 1350.31 176.897C1350.31 112.272 1399.5 79.6004 1447.61 79.6004C1493.92 79.6004 1539.16 109.4 1539.16 169.716V189.462H1398.42ZM1490.33 158.945C1490.33 136.327 1469.51 123.043 1447.25 123.043C1427.15 123.043 1406.32 134.172 1399.5 158.945H1490.33Z" stroke="#050021" stroke-width="10.2487"/>
<path d="M174.024 21.4381H221.416V272.757H174.024V167.921H155.355C105.45 167.921 53.0325 181.923 53.0325 272.757H6V21.4381H53.0325V173.306C78.8824 132.736 120.17 124.838 147.815 124.838H174.024V21.4381Z" fill="#F36F25"/>
<path d="M289.44 60.376C274.72 60.376 262.513 48.1691 262.513 33.449C262.513 18.3699 274.72 6.52204 289.44 6.52204C304.16 6.52204 316.367 18.3699 316.367 33.449C316.367 48.1691 304.16 60.376 289.44 60.376ZM312.418 272.757H266.462V84.2677H312.418V272.757Z" fill="#F36F25"/>
<path d="M401.832 272.757H355.518V6H401.832V272.757ZM464.662 183.718L550.828 272.757H485.844L410.808 190.54V156.073C456.404 154.278 472.56 122.325 472.56 84.2677H520.67C520.67 130.582 499.846 168.28 464.662 183.718Z" fill="#F36F25"/>
<path d="M600.118 189.462C605.504 218.185 629.918 232.905 654.69 232.905C673.719 232.905 692.747 224.288 704.236 207.055L740.857 233.623C725.419 261.986 691.67 277.065 656.485 277.065C605.145 277.065 552.009 245.111 552.009 176.896C552.009 112.272 601.195 79.6004 649.305 79.6004C695.619 79.6004 740.857 109.4 740.857 169.716V189.462H600.118ZM692.029 158.945C692.029 136.327 671.206 123.043 648.946 123.043C628.84 123.043 608.017 134.172 601.195 158.945H692.029Z" fill="#F36F25"/>
<path d="M174.024 21.4381H221.416V272.757H174.024V167.921H155.355C105.45 167.921 53.0325 181.923 53.0325 272.757H6V21.4381H53.0325V173.306C78.8824 132.736 120.17 124.838 147.815 124.838H174.024V21.4381Z" stroke="#F36F25" stroke-width="10.2487"/>
<path d="M289.44 60.376C274.72 60.376 262.513 48.1691 262.513 33.449C262.513 18.3699 274.72 6.52204 289.44 6.52204C304.16 6.52204 316.367 18.3699 316.367 33.449C316.367 48.1691 304.16 60.376 289.44 60.376ZM312.418 272.757H266.462V84.2677H312.418V272.757Z" stroke="#F36F25" stroke-width="10.2487"/>
<path d="M401.832 272.757H355.518V6H401.832V272.757ZM464.662 183.718L550.828 272.757H485.844L410.808 190.54V156.073C456.404 154.278 472.56 122.325 472.56 84.2677H520.67C520.67 130.582 499.846 168.28 464.662 183.718Z" stroke="#F36F25" stroke-width="10.2487"/>
<path d="M600.118 189.462C605.504 218.185 629.918 232.905 654.69 232.905C673.719 232.905 692.747 224.288 704.236 207.055L740.857 233.623C725.419 261.986 691.67 277.065 656.485 277.065C605.145 277.065 552.009 245.111 552.009 176.896C552.009 112.272 601.195 79.6004 649.305 79.6004C695.619 79.6004 740.857 109.4 740.857 169.716V189.462H600.118ZM692.029 158.945C692.029 136.327 671.206 123.043 648.946 123.043C628.84 123.043 608.017 134.172 601.195 158.945H692.029Z" stroke="#F36F25" stroke-width="10.2487"/>
</svg>
