<svg width="147" height="27" viewBox="0 0 147 27" fill="none" xmlns="http://www.w3.org/2000/svg">
<path d="M93.6129 8.06965H98.1289L94.8014 23.0097C93.9865 25.7601 93.0697 26.4052 90.557 26.4052C88.0783 26.4052 87.1615 25.7601 86.3127 23.0097L85.1582 18.9691L84.0038 23.0097C83.1549 25.7601 82.2381 26.4052 79.7594 26.4052C77.2807 26.4052 76.33 25.7601 75.5151 23.0097L72.1875 8.06965H76.7035L79.5217 21.7195C79.5896 21.8553 79.6575 21.9232 79.7594 21.9571C79.8952 21.9232 79.9631 21.8213 80.0311 21.6516L82.9172 11.6349C83.2228 10.5144 84.2075 9.93716 85.1582 9.93716C86.1429 9.93716 87.1276 10.5144 87.4332 11.6349L90.3193 21.6855C90.3872 21.8213 90.4552 21.9232 90.557 21.9571C90.6928 21.9232 90.7607 21.8553 90.7947 21.7195L93.6129 8.06965Z" fill="white"/>
<path d="M102.908 5.74219C101.515 5.74219 100.361 4.58773 100.361 3.19559C100.361 1.76949 101.515 0.648981 102.908 0.648981C104.3 0.648981 105.454 1.76949 105.454 3.19559C105.454 4.58773 104.3 5.74219 102.908 5.74219ZM105.081 25.828H100.734V8.00174H105.081V25.828Z" fill="white"/>
<path d="M113.537 25.828H109.157V0.599609H113.537V25.828ZM119.479 17.4072L127.628 25.828H121.482L114.386 18.0523V14.7927C118.698 14.6229 120.226 11.6009 120.226 8.00174H124.776C124.776 12.3819 122.807 15.9472 119.479 17.4072Z" fill="white"/>
<path d="M132.29 17.9505C132.799 20.6669 135.108 22.059 137.451 22.059C139.251 22.059 141.05 21.2441 142.137 19.6143L145.6 22.1269C144.14 24.8093 140.948 26.2354 137.621 26.2354C132.765 26.2354 127.74 23.2135 127.74 16.7621C127.74 10.6502 132.392 7.56033 136.942 7.56033C141.322 7.56033 145.6 10.3786 145.6 16.083V17.9505H132.29ZM140.982 15.0643C140.982 12.9252 139.013 11.6689 136.908 11.6689C135.006 11.6689 133.037 12.7215 132.392 15.0643H140.982Z" fill="white"/>
<path d="M93.6129 8.06965H98.1289L94.8014 23.0097C93.9865 25.7601 93.0697 26.4052 90.557 26.4052C88.0783 26.4052 87.1615 25.7601 86.3127 23.0097L85.1582 18.9691L84.0038 23.0097C83.1549 25.7601 82.2381 26.4052 79.7594 26.4052C77.2807 26.4052 76.33 25.7601 75.5151 23.0097L72.1875 8.06965H76.7035L79.5217 21.7195C79.5896 21.8553 79.6575 21.9232 79.7594 21.9571C79.8952 21.9232 79.9631 21.8213 80.0311 21.6516L82.9172 11.6349C83.2228 10.5144 84.2075 9.93716 85.1582 9.93716C86.1429 9.93716 87.1276 10.5144 87.4332 11.6349L90.3193 21.6855C90.3872 21.8213 90.4552 21.9232 90.557 21.9571C90.6928 21.9232 90.7607 21.8553 90.7947 21.7195L93.6129 8.06965Z" stroke="white" stroke-width="1.2"/>
<path d="M102.908 5.74219C101.515 5.74219 100.361 4.58773 100.361 3.19559C100.361 1.76949 101.515 0.648981 102.908 0.648981C104.3 0.648981 105.454 1.76949 105.454 3.19559C105.454 4.58773 104.3 5.74219 102.908 5.74219ZM105.081 25.828H100.734V8.00174H105.081V25.828Z" stroke="white" stroke-width="1.2"/>
<path d="M113.537 25.828H109.157V0.599609H113.537V25.828ZM119.479 17.4072L127.628 25.828H121.482L114.386 18.0523V14.7927C118.698 14.6229 120.226 11.6009 120.226 8.00174H124.776C124.776 12.3819 122.807 15.9472 119.479 17.4072Z" stroke="white" stroke-width="1.2"/>
<path d="M132.29 17.9505C132.799 20.6669 135.108 22.059 137.451 22.059C139.251 22.059 141.05 21.2441 142.137 19.6143L145.6 22.1269C144.14 24.8093 140.948 26.2354 137.621 26.2354C132.765 26.2354 127.74 23.2135 127.74 16.7621C127.74 10.6502 132.392 7.56033 136.942 7.56033C141.322 7.56033 145.6 10.3786 145.6 16.083V17.9505H132.29ZM140.982 15.0643C140.982 12.9252 139.013 11.6689 136.908 11.6689C135.006 11.6689 133.037 12.7215 132.392 15.0643H140.982Z" stroke="white" stroke-width="1.2"/>
<path d="M16.4924 2.05966H20.9744V25.828H16.4924V15.9132H14.7267C10.007 15.9132 5.04964 17.2374 5.04964 25.828H0.601562V2.05966H5.04964V16.4225C7.49438 12.5856 11.3992 11.8386 14.0137 11.8386H16.4924V2.05966Z" fill="#F36F25"/>
<path d="M27.4078 5.74219C26.0156 5.74219 24.8612 4.58773 24.8612 3.19559C24.8612 1.76949 26.0156 0.648981 27.4078 0.648981C28.7999 0.648981 29.9544 1.76949 29.9544 3.19559C29.9544 4.58773 28.7999 5.74219 27.4078 5.74219ZM29.5809 25.828H25.2347V8.00174H29.5809V25.828Z" fill="#F36F25"/>
<path d="M38.0372 25.828H33.657V0.599609H38.0372V25.828ZM43.9793 17.4072L52.1284 25.828H45.9826L38.8861 18.0523V14.7927C43.1983 14.6229 44.7263 11.6009 44.7263 8.00174H49.2762C49.2762 12.3819 47.3068 15.9472 43.9793 17.4072Z" fill="#F36F25"/>
<path d="M56.79 17.9505C57.2993 20.6669 59.6083 22.059 61.9511 22.059C63.7507 22.059 65.5503 21.2441 66.6369 19.6143L70.1003 22.1269C68.6402 24.8093 65.4485 26.2354 62.1209 26.2354C57.2654 26.2354 52.2401 23.2135 52.2401 16.7621C52.2401 10.6502 56.8919 7.56033 61.4418 7.56033C65.822 7.56033 70.1003 10.3786 70.1003 16.083V17.9505H56.79ZM65.4824 15.0643C65.4824 12.9252 63.5131 11.6689 61.4079 11.6689C59.5064 11.6689 57.537 12.7215 56.8919 15.0643H65.4824Z" fill="#F36F25"/>
<path d="M16.4924 2.05966H20.9744V25.828H16.4924V15.9132H14.7267C10.007 15.9132 5.04964 17.2374 5.04964 25.828H0.601562V2.05966H5.04964V16.4225C7.49438 12.5856 11.3992 11.8386 14.0137 11.8386H16.4924V2.05966Z" stroke="#F36F25" stroke-width="1.2"/>
<path d="M27.4078 5.74219C26.0156 5.74219 24.8612 4.58773 24.8612 3.19559C24.8612 1.76949 26.0156 0.648981 27.4078 0.648981C28.7999 0.648981 29.9544 1.76949 29.9544 3.19559C29.9544 4.58773 28.7999 5.74219 27.4078 5.74219ZM29.5809 25.828H25.2347V8.00174H29.5809V25.828Z" stroke="#F36F25" stroke-width="1.2"/>
<path d="M38.0372 25.828H33.657V0.599609H38.0372V25.828ZM43.9793 17.4072L52.1284 25.828H45.9826L38.8861 18.0523V14.7927C43.1983 14.6229 44.7263 11.6009 44.7263 8.00174H49.2762C49.2762 12.3819 47.3068 15.9472 43.9793 17.4072Z" stroke="#F36F25" stroke-width="1.2"/>
<path d="M56.79 17.9505C57.2993 20.6669 59.6083 22.059 61.9511 22.059C63.7507 22.059 65.5503 21.2441 66.6369 19.6143L70.1003 22.1269C68.6402 24.8093 65.4485 26.2354 62.1209 26.2354C57.2654 26.2354 52.2401 23.2135 52.2401 16.7621C52.2401 10.6502 56.8919 7.56033 61.4418 7.56033C65.822 7.56033 70.1003 10.3786 70.1003 16.083V17.9505H56.79ZM65.4824 15.0643C65.4824 12.9252 63.5131 11.6689 61.4079 11.6689C59.5064 11.6689 57.537 12.7215 56.8919 15.0643H65.4824Z" stroke="#F36F25" stroke-width="1.2"/>
</svg>
